<svg id="圖層_1" data-name="圖層 1" xmlns="http://www.w3.org/2000/svg" viewBox="0 0 113 28"><defs><style>.cls-1{fill:#fff;}</style></defs><title>logo</title><g id="Group-4"><rect id="Rectangle" class="cls-1" x="0.04" y="3" width="35.54" height="2.27" rx="0.38" ry="0.38"/><rect id="Rectangle-Copy" class="cls-1" x="0.04" y="12.08" width="35.54" height="2.27" rx="0.38" ry="0.38"/><path id="Combined-Shape" class="cls-1" d="M3.45,15.86H32.18a1.9,1.9,0,0,1,1.89,1.9v8.32h0A1.89,1.89,0,0,1,32.18,28H3.45a1.89,1.89,0,0,1-1.9-1.89V17.76h0a1.9,1.9,0,0,1,1.9-1.9Zm6,3a.38.38,0,0,0-.37.38v1.51a.38.38,0,0,0,.37.38H26.13a.38.38,0,0,0,.38-.38h0V19.27a.38.38,0,0,0-.38-.38Zm0,3.79a.37.37,0,0,0-.37.37v1.52a.38.38,0,0,0,.37.38H26.13a.38.38,0,0,0,.38-.38V23.05a.37.37,0,0,0-.38-.37Z"/><path id="Rectangle-2" class="cls-1" d="M14,.73h7.56a.76.76,0,0,1,.76.76V3H13.28V1.49h0A.75.75,0,0,1,14,.73Z"/><path id="Path-2-Copy" class="cls-1" d="M33.24,6.41h-7.6a.39.39,0,0,0-.36.25L25,7.47h0a1.61,1.61,0,0,1-1.51,1.06H19.32V11H30.63a2.71,2.71,0,0,0,2.68-2.27l.31-1.83h0a.39.39,0,0,0-.31-.44Z"/><path id="Path-2-Copy-2" data-name="Path-2-Copy" class="cls-1" d="M1.56,6.41h7.6a.39.39,0,0,1,.36.25l.28.81h0a1.61,1.61,0,0,0,1.51,1.06h4.17V11H4.17A2.71,2.71,0,0,1,1.49,8.68L1.18,6.85h0a.39.39,0,0,1,.31-.44Z"/></g><g id="Group"><rect id="Rectangle-14" class="cls-1" x="77.5" y="0.73" width="35.54" height="2.27" rx="0.38" ry="0.38"/><rect id="Rectangle-15" class="cls-1" x="91.11" y="1.86" width="8.32" height="10.59"/><path id="Rectangle-16" class="cls-1" d="M79.4,4.89h6.42v7.19H77.88a.38.38,0,0,1-.38-.38V6.78h0A1.9,1.9,0,0,1,79.4,4.89Z"/><rect id="Rectangle-17" class="cls-1" x="81.66" y="4.89" width="13.61" height="1.14"/><rect id="Rectangle-18" class="cls-1" x="84.31" y="7.54" width="5.29" height="1.14"/><rect id="Rectangle-18-Copy" class="cls-1" x="84.31" y="9.81" width="5.29" height="1.14"/><path id="Rectangle-16-2" data-name="Rectangle-16" class="cls-1" d="M111.15,4.89h-6.43v7.19h7.94a.38.38,0,0,0,.38-.38V6.78h0A1.89,1.89,0,0,0,111.15,4.89Z"/><rect id="Rectangle-17-2" data-name="Rectangle-17" class="cls-1" x="95.27" y="4.89" width="13.61" height="1.14"/><rect id="Rectangle-18-2" data-name="Rectangle-18" class="cls-1" x="100.94" y="7.54" width="5.29" height="1.14"/><rect id="Rectangle-18-Copy-2" data-name="Rectangle-18-Copy" class="cls-1" x="100.94" y="9.81" width="5.29" height="1.14"/><path id="Rectangle-23" class="cls-1" d="M98.3,13.22h5.29V25h0a3,3,0,0,1-3,3H96.41a.38.38,0,0,1-.38-.38V23.05h.75a.75.75,0,0,0,.76-.75V14h0A.75.75,0,0,1,98.3,13.22Z"/><path id="Rectangle-23-Copy" class="cls-1" d="M107,13.22h5.3A.75.75,0,0,1,113,14V25h0a3,3,0,0,1-3,3h-4.16a.38.38,0,0,1-.38-.38V23.05h.76a.75.75,0,0,0,.75-.75Z"/><rect id="Rectangle-24" class="cls-1" x="99.43" y="13.22" width="11.72" height="1.14"/><rect id="Rectangle-24-Copy-2" class="cls-1" x="99.43" y="19.65" width="11.72" height="1.14"/><rect id="Rectangle-24-Copy" class="cls-1" x="99.43" y="16.24" width="11.72" height="1.51"/><rect id="Rectangle-19" class="cls-1" x="76.75" y="13.97" width="18.9" height="1.14" rx="0.19" ry="0.19"/><rect id="Rectangle-19-Copy" class="cls-1" x="77.5" y="24.57" width="17.39" height="1.51" rx="0.19" ry="0.19"/><path id="Rectangle-20" class="cls-1" d="M77.88,13.22h6.3v2.64h0a.76.76,0,0,0,.76.76h2.52a.76.76,0,0,0,.76-.76V13.22h6.3v3h0a1.89,1.89,0,0,1-1.9,1.89H79.77a1.89,1.89,0,0,1-1.89-1.89Z"/><rect id="Rectangle-21" class="cls-1" x="83.55" y="17.76" width="5.29" height="9.84"/><rect id="Rectangle-21-2" data-name="Rectangle-21" class="cls-1" x="77.88" y="18.89" width="4.54" height="4.92" rx="0.76" ry="0.76"/><rect id="Rectangle-21-3" data-name="Rectangle-21" class="cls-1" x="89.98" y="18.89" width="4.54" height="4.92" rx="0.76" ry="0.76"/><path id="Rectangle-22" class="cls-1" d="M78.45,18.89H94a.58.58,0,0,1,.57.57h0A.58.58,0,0,1,94,20H78.45a.58.58,0,0,1-.57-.57h0A.58.58,0,0,1,78.45,18.89Z"/><path id="Rectangle-22-2" data-name="Rectangle-22" class="cls-1" d="M78.45,22.68H94a.57.57,0,0,1,.57.56h0a.57.57,0,0,1-.57.57H78.45a.57.57,0,0,1-.57-.57h0A.57.57,0,0,1,78.45,22.68Z"/></g><path class="cls-1" d="M71.86.31c.64.3.75.52.55,1.2S71.89,3.17,71.59,4a1.89,1.89,0,0,1-2,1.29H47.15v7.63h5.16V8.46c0-1,.23-1.27,1.29-1.27H59c.76,0,1.05.29,1.05,1V13H71.41a1.34,1.34,0,0,1,1.22,2.1,1,1,0,0,1-1,.46H60.06v.62c0,3,0,6.06,0,9.08A2.67,2.67,0,0,1,57.3,28c-2.39,0-4.78,0-7.16,0-.93,0-1.24-.31-1.24-1.25,0-1.33,0-2.66,0-4,0-.77.32-1.08,1.1-1.09h1a1.21,1.21,0,0,0,1.31-1.24c0-1.6,0-3.2,0-4.89h-.6c-3.08,0-6.16,0-9.24,0a2.92,2.92,0,0,1-3.07-3.11c0-2.2,0-4.41,0-6.62a2.8,2.8,0,0,1,3-3H62.7c.95,0,1.11-.13,1.18-1.08,0-.6.12-1.16.76-1.44Z"/><path class="cls-1" d="M47.74,17.13c-.18,1.23-.35,2.43-.53,3.63-.24,1.6-.5,3.2-.73,4.8A2.52,2.52,0,0,1,43.76,28q-2.32,0-4.65,0c-.87,0-1.19-.31-1.19-1.17s0-2,0-3c0-.77.33-1.09,1.1-1.1h.76a1.11,1.11,0,0,0,1.24-1c.23-1.38.45-2.77.67-4.15,0-.27.07-.48.44-.47h5.3C47.51,17.08,47.6,17.11,47.74,17.13Z"/><path class="cls-1" d="M61.93,17.1h5.9l.51,3.12c.09.5.15,1,.24,1.51a1.12,1.12,0,0,0,1.22,1h.77c.77,0,1.1.32,1.11,1.08q0,1.53,0,3.06c0,.74-.34,1.08-1.07,1.08-1.69,0-3.39,0-5.08,0a2.37,2.37,0,0,1-2.35-2.11c-.47-2.85-.87-5.72-1.29-8.58C61.88,17.23,61.9,17.19,61.93,17.1Z"/></svg>