<svg xmlns="http://www.w3.org/2000/svg" width="50" height="50" viewBox="0 0 50 50">
    <g fill="none" fill-rule="evenodd">
        <circle cx="25" cy="25" r="25" fill="#ED4A4A"/>
        <ellipse cx="19.418" cy="22.811" fill="#FFF" rx="8.803" ry="4.158" transform="rotate(-43 19.418 22.811)"/>
        <ellipse cx="25.859" cy="25.875" fill="#FFF" rx="8.803" ry="4.158" transform="rotate(-43 25.859 25.875)"/>
        <ellipse cx="24.785" cy="28.939" fill="#FFF" rx="11.594" ry="6.785" transform="rotate(-7 24.785 28.94)"/>
        <ellipse cx="16.197" cy="28.721" fill="#FFF" rx="3.865" ry="3.939"/>
        <ellipse cx="23.282" cy="28.502" fill="#ED4A4A" rx="8.374" ry="5.471" transform="rotate(-4 23.282 28.502)"/>
        <ellipse cx="22.853" cy="29.158" fill="#FFF" rx="4.509" ry="3.939" transform="rotate(-16 22.853 29.158)"/>
        <ellipse cx="21.565" cy="30.034" fill="#ED4A4A" rx="1.503" ry="1.313" transform="rotate(-36 21.565 30.034)"/>
        <ellipse cx="23.727" cy="28.278" fill="#ED4A4A" rx="1" ry="1" transform="rotate(-36 23.727 28.303)"/>
        <path fill="#FFF" d="M30.949 13.522l-.062-.24c.65-.207 1.34-.319 2.057-.319 3.795 0 6.87 3.135 6.87 7.003 0 .75-.115 1.47-.328 2.147l-.112-.014a1.08 1.08 0 0 1-1.062.931c-.593 0-1.074-.49-1.074-1.094 0-.279.102-.533.27-.726a4.91 4.91 0 0 0 .16-1.244c0-2.659-2.115-4.814-4.724-4.814-.232 0-.46.017-.683.05a1.063 1.063 0 0 1-.82.387c-.593 0-1.073-.49-1.073-1.094 0-.423.236-.79.58-.973z"/>
        <path fill="#FFF" d="M32.657 16.477c.095-.008.19-.012.287-.012 1.897 0 3.435 1.567 3.435 3.501 0 .2-.016.396-.047.587a.89.89 0 0 1 .047.289.867.867 0 0 1-.858.875.867.867 0 0 1-.86-.875c0-.146.036-.284.098-.405l-.15-.039c.035-.138.053-.283.053-.432 0-.967-.77-1.75-1.718-1.75-.075 0-.15.004-.222.014l-.005-.039a.867.867 0 0 1-1.062-.85.867.867 0 0 1 1.002-.864zm-3.094 4.113a3.589 3.589 0 0 1 0-1.247v1.247z"/>
    </g>
</svg>
