<?xml version="1.0" standalone="no"?>
<!DOCTYPE svg PUBLIC "-//W3C//DTD SVG 20010904//EN"
 "http://www.w3.org/TR/2001/REC-SVG-20010904/DTD/svg10.dtd">
<svg version="1.0" xmlns="http://www.w3.org/2000/svg"
 width="114.000000pt" height="114.000000pt" viewBox="0 0 114.000000 114.000000"
 preserveAspectRatio="xMidYMid meet">
<metadata>
Created by potrace 1.11, written by Peter Selinger 2001-2013
</metadata>
<g transform="translate(0.000000,114.000000) scale(0.100000,-0.100000)"
fill="#000000" stroke="none">
<path d="M253 1125 c-102 -31 -176 -96 -222 -194 l-26 -56 0 -305 0 -305 33
-67 c37 -77 90 -128 172 -167 l55 -26 305 0 305 0 55 26 c82 39 135 90 172
167 l33 67 3 385 c2 352 1 388 -15 420 -35 69 -43 70 -458 69 -276 0 -381 -4
-412 -14z"/>
</g>
</svg>
