<?xml version="1.0" encoding="UTF-8" standalone="no"?>
<svg width="30px" height="30px" viewBox="0 0 30 30" version="1.1" xmlns="http://www.w3.org/2000/svg" xmlns:xlink="http://www.w3.org/1999/xlink">
    <!-- Generator: sketchtool 45.2 (43514) - http://www.bohemiancoding.com/sketch -->
    <title>2E91B439-2623-4CB9-A581-EF3F0B8D7A27</title>
    <desc>Created with sketchtool.</desc>
    <defs></defs>
    <g id="ðŸ”-è¦æ ¼èªªæ˜Ž" stroke="none" stroke-width="1" fill="none" fill-rule="evenodd">
        <g id="icon-#FFF" transform="translate(-360.000000, -60.000000)">
            <g id="06" transform="translate(360.000000, 60.000000)">
                <rect id="icon/06-search/n" fill="#FFFFFF" opacity="0" x="0" y="0" width="30" height="30"></rect>
                <g id="icon/06-search/n" stroke="#FFF">
                    <path d="M27.4033395,26.7796022 L23.5584452,21.8555799 L23.8639619,21.5429398 C26.0061224,19.3508326 27.2186415,16.464712 27.2186415,13.3951729 C27.2186415,6.82984663 21.6892142,1.5 14.8593208,1.5 C8.02942732,1.5 2.5,6.82984663 2.5,13.3951729 C2.5,19.9604991 8.02942732,25.2903457 14.8593208,25.2903457 C17.1519079,25.2903457 19.3513243,24.6890768 21.2671722,23.5687864 L21.6445818,23.3480964 L25.5213145,28.312893 C25.6912651,28.5305427 26.0054772,28.5692106 26.223127,28.39926 C26.2300274,28.3938064 26.2300274,28.3938064 26.2367981,28.3881925 L27.3306436,27.4703471 C27.5369375,27.2972459 27.5690775,26.9918571 27.4033395,26.7796022 Z" id="Combined-Shape" stroke-width="1"></path>
                    <ellipse id="Oval-14" stroke-width="2.2" cx="14.8593208" cy="13.3951729" rx="12.2593208" ry="11.7951729"></ellipse>
                </g>
            </g>
        </g>
    </g>
</svg>