<svg xmlns="http://www.w3.org/2000/svg" width="16" height="17" viewBox="0 0 16 17">
    <g fill="none" fill-rule="evenodd">
        <path fill="#0078B2" d="M3 12h10v3H3z"/>
        <g fill="#FFF">
            <path d="M4.5 14.6l.5-1H4zM8 14.6l.5-1h-1zM11.5 14.6l.5-1h-1z"/>
        </g>
        <g>
            <g transform="translate(2 2)">
                <path fill="#BF7F4D" d="M1.5 0A1.5 1.5 0 0 1 3 1.5v4h6v-4a1.5 1.5 0 0 1 3 0V9a2 2 0 0 1-2 2H2a2 2 0 0 1-2-2V1.5A1.5 1.5 0 0 1 1.5 0z"/>
                <rect width="2.6" height="11" x="9" fill="#F6CBA1" rx="1.3"/>
                <path fill="#F6CBA1" d="M1.3 0a1.3 1.3 0 0 1 1.3 1.3v4.5a2 2 0 0 0 2 2H7a2 2 0 0 0 2-2v-.3h2.6v2.9a2 2 0 0 1-2 2H2a2 2 0 0 1-2-2V1.3A1.3 1.3 0 0 1 1.3 0z"/>
            </g>
            <path fill="#FFDAB7" d="M6.5 4.5A1.5 1.5 0 0 1 8 6v2a1.5 1.5 0 0 1-3 0V6a1.5 1.5 0 0 1 1.5-1.5z"/>
            <path fill="#BF7F4D" d="M6.798 4.53A1.5 1.5 0 0 1 8 6v2a1.5 1.5 0 0 1-2.298 1.27A1.5 1.5 0 0 0 7.5 7.8v-2c0-.535-.28-1.005-.702-1.27z" style="mix-blend-mode:darken"/>
            <path fill="#FFDAB7" d="M9.5 4A1.5 1.5 0 0 1 11 5.5v2a1.5 1.5 0 0 1-3 0v-2A1.5 1.5 0 0 1 9.5 4z"/>
            <path fill="#BF7F4D" d="M9.798 4.03A1.5 1.5 0 0 1 11 5.5v3a1.5 1.5 0 0 1-2.298 1.27A1.5 1.5 0 0 0 10.5 8.3v-3c0-.535-.28-1.005-.702-1.27z" style="mix-blend-mode:darken"/>
            <path fill="#BF7F4D" d="M14 10.35V11a2 2 0 0 1-2 2h-1.208a.831.831 0 0 1-.292-.633.833.833 0 0 0-.833-.834h-1a1.667 1.667 0 0 1 0-3.333H12.5A1.5 1.5 0 0 1 14 9.7v.65z"/>
            <g>
                <path fill="#FFDAB7" d="M8.4 8.7h4.1a1.5 1.5 0 0 1 1.5 1.5v.8a2 2 0 0 1-2 2h-1.25a.75.75 0 0 1-.75-.75.75.75 0 0 0-.75-.75H8.4a1.4 1.4 0 1 1 0-2.8z"/>
                <path fill="#BF7F4D" d="M11.547 13h-.797a.75.75 0 0 1-.75-.75.75.75 0 0 0-.75-.75H8.5A1.5 1.5 0 0 1 7 10c0-.109.012-.214.033-.316a1.834 1.834 0 0 0 1.8 1.483h.917c.506 0 .917.41.917.916 0 .494.39.897.88.916z"/>
            </g>
        </g>
    </g>
</svg>
