<svg xmlns="http://www.w3.org/2000/svg" width="16" height="17" viewBox="0 0 16 17">
    <g fill="none" fill-rule="evenodd">
        <path fill="#FFF22F" d="M10.959 8.5a3 3 0 0 1-5.918 0H6.75a.25.25 0 1 0 0-.5H5V5a3 3 0 1 1 6 0v3H9.25a.25.25 0 1 0 0 .5h1.709zM5 5v.5h1.75a.25.25 0 1 0 0-.5H5zm0 1.5V7h1.75a.25.25 0 1 0 0-.5H5zM11 5H9.25a.25.25 0 1 0 0 .5H11V5zm0 1.5H9.25a.25.25 0 1 0 0 .5H11v-.5z"/>
        <path fill="#FDCE00" d="M11 8H9.25a.25.25 0 1 0 0 .5h1.709A3 3 0 0 1 8 11c-.572 0-1.107-.16-1.562-.438A2.986 2.986 0 0 1 6 9v-.5h.75a.25.25 0 1 0 0-.5H6V7h.75a.25.25 0 1 0 0-.5H6V6c0-.17.014-.337.041-.5h.709a.25.25 0 1 0 0-.5h-.58a3.001 3.001 0 0 1 4.392-1.562c.278.455.438.99.438 1.562v3zm0-3H9.25a.25.25 0 1 0 0 .5H11V5zm0 1.5H9.25a.25.25 0 1 0 0 .5H11v-.5z" style="mix-blend-mode:multiply"/>
        <g fill="#C18714">
            <path d="M7.5 12h1v3h-1z"/>
            <path d="M4 15h7a.5.5 0 0 0 0-1H4a.5.5 0 0 0 0 1zM3.5 8.52A4.48 4.48 0 0 0 7.98 13a4.504 4.504 0 0 0 4.52-4.5.5.5 0 0 0-1 0A3.5 3.5 0 0 1 8 12a3.484 3.484 0 0 1-3.5-3.48.5.5 0 1 0-1 0z"/>
        </g>
    </g>
</svg>
