<svg xmlns="http://www.w3.org/2000/svg" width="16" height="17" viewBox="0 0 16 17">
    <g fill="none" fill-rule="evenodd">
        <g transform="translate(4 2)">
            <path stroke="#FADB6E" stroke-linecap="round" stroke-linejoin="round" stroke-width=".5" d="M1.2 1.379h5.6c.552 0 1 .44 1 .985v.788a.993.993 0 0 1-1 .984H1.2c-.552 0-1-.44-1-.984v-.788a.993.993 0 0 1 1-.985z"/>
            <path fill="#329FA5" fill-rule="nonzero" d="M.4 0h7.2v2.758c0 .217-.18.394-.4.394H.8c-.22 0-.4-.177-.4-.394V0z"/>
            <path fill="#5BC9CC" fill-rule="nonzero" d="M2.4 0h3.2v3.152H2.4z"/>
            <ellipse cx="4" cy="5.121" stroke="#FADB6E" stroke-width=".5" rx="1" ry="1"/>
        </g>
        <g transform="translate(4 7.121)">
            <ellipse cx="4" cy="3.939" fill="#FADB6E" rx="4" ry="3.939"/>
            <ellipse cx="4" cy="3.939" stroke="#E7B644" stroke-width=".788" rx="3.6" ry="3.545"/>
        </g>
        <g transform="translate(5.2 8.303)">
            <ellipse cx="2.8" cy="2.758" fill="#FADB6E" rx="2.8" ry="2.758"/>
            <ellipse cx="2.8" cy="2.758" stroke="#E7B644" stroke-width=".5" rx="2.6" ry="2.561"/>
        </g>
        <path fill="#E7B644" fill-rule="nonzero" d="M8 11.848l-.94.487.18-1.03-.762-.731 1.052-.15.47-.94.47.94 1.052.15-.761.73.18 1.031z"/>
    </g>
</svg>
