<svg xmlns="http://www.w3.org/2000/svg" width="30" height="30" viewBox="0 0 30 30">
    <g fill="gray" fill-rule="nonzero">
        <path d="M24.764 8.676c-2.438 3.873-5.771 5.762-10.139 5.762-4.368 0-7.7-1.89-10.14-5.762a1.312 1.312 0 0 0-2.22 1.398c2.913 4.627 7.08 6.988 12.36 6.988 5.28 0 9.447-2.36 12.36-6.988a1.313 1.313 0 0 0-2.22-1.398zM13.313 19.125v1.688a1.313 1.313 0 0 0 2.624 0v-1.688a1.313 1.313 0 0 0-2.624 0zM7.195 17.792l-.493 1.614a1.312 1.312 0 1 0 2.51.768l.494-1.614a1.312 1.312 0 1 0-2.51-.768zM1.721 14.57l-.944 1.399a1.312 1.312 0 1 0 2.177 1.468l.943-1.4a1.313 1.313 0 1 0-2.176-1.467zM26.232 16.038l.944 1.399a1.313 1.313 0 0 0 2.176-1.468l-.943-1.399a1.312 1.312 0 1 0-2.177 1.468zM20.021 18.56l.494 1.614a1.313 1.313 0 0 0 2.51-.768l-.493-1.614a1.313 1.313 0 0 0-2.51.768z"/>
    </g>
</svg>
