<svg xmlns="http://www.w3.org/2000/svg" width="30" height="30" viewBox="0 0 30 30">
    <g fill="#0078B2" fill-rule="evenodd" transform="translate(2.625 7.313)">
        <circle cx="12.375" cy="7.688" r="3.938"/>
        <path fill-rule="nonzero" d="M12.375 12.75c4.345 0 7.42-1.628 9.535-5.019-2.27-3.456-5.36-5.106-9.535-5.106-4.176 0-7.264 1.65-9.535 5.106 2.114 3.39 5.19 5.019 9.535 5.019zm0-12.75c5.24 0 9.244 2.245 12.012 6.736.363.587.373 1.327.026 1.924-2.595 4.477-6.608 6.715-12.038 6.715-5.43 0-9.443-2.238-12.038-6.715a1.875 1.875 0 0 1 .026-1.924C3.13 2.246 7.135 0 12.375 0z"/>
    </g>
</svg>
