<svg xmlns="http://www.w3.org/2000/svg" xmlns:xlink="http://www.w3.org/1999/xlink" width="16" height="17" viewBox="0 0 16 17">
    <defs>
        <ellipse id="a" cx="4" cy="9.061" rx="4" ry="3.939"/>
    </defs>
    <g fill="none" fill-rule="evenodd">
        <g transform="translate(4.4 2)">
            <path stroke="#FADB6E" stroke-linecap="round" stroke-linejoin="round" stroke-width=".5" d="M.788 1.326h5.624c.573 0 1.038.464 1.038 1.038v.788c0 .573-.465 1.037-1.038 1.037H.788A1.038 1.038 0 0 1-.25 3.152v-.788c0-.574.465-1.038 1.038-1.038z"/>
            <path fill="#329FA5" d="M0 0h7.2v2.758a.394.394 0 0 1-.394.394H.394A.394.394 0 0 1 0 2.758V0z"/>
            <path fill="#5BC9CC" d="M2 0h3.2v3.152H2z"/>
            <ellipse cx="3.6" cy="5.121" stroke="#FADB6E" stroke-width=".5" rx="1.05" ry="1.038"/>
        </g>
        <g transform="translate(4 2)">
            <use fill="#5BC9CC" xlink:href="#a"/>
            <ellipse cx="4" cy="9.061" stroke="#329FA5" stroke-width=".788" rx="3.606" ry="3.545"/>
        </g>
    </g>
</svg>
