<svg xmlns="http://www.w3.org/2000/svg" width="16" height="17" viewBox="0 0 16 17">
    <g fill="none" fill-rule="evenodd" transform="translate(2 2)">
        <path fill="#329FA5" fill-rule="nonzero" d="M2.143 10.484h7.714v2.097c0 .231-.192.419-.428.419H2.57a.424.424 0 0 1-.428-.42v-2.096z"/>
        <path fill="#5BC9CC" fill-rule="nonzero" d="M2.571 10.903h6.857v1.677H2.571z"/>
        <path fill="#E7B644" d="M5.143 7.968h1.714v2.097H5.143z"/>
        <path stroke="#E7B644" stroke-width=".5" d="M5.357 8.178h1.286v1.677H5.357z"/>
        <path fill="#FADB6E" d="M2.905 9.14l3.048-.331a.438.438 0 0 1 .094 0l3.048.332a.846.846 0 0 1 .762.833v.51H2.143v-.51c0-.427.328-.786.762-.833z"/>
        <path stroke="#E7B644" stroke-width=".5" d="M2.357 10.274h7.286v-.3c0-.32-.246-.59-.572-.625l-3.047-.332a.219.219 0 0 0-.048 0L2.93 9.35a.634.634 0 0 0-.572.625v.3z"/>
        <path stroke="#E7B644" stroke-linecap="round" stroke-linejoin="round" stroke-width=".587" d="M1.046 2.516h9.908a.848.848 0 0 1 .841 1.003l-.143.7a.841.841 0 0 1-.448.58C8.68 6.074 6.944 6.71 6 6.71c-.945 0-2.68-.636-5.204-1.91a.841.841 0 0 1-.448-.58l-.143-.7a.84.84 0 0 1 .672-.987.875.875 0 0 1 .169-.016z"/>
        <path fill="#FADB6E" d="M2.162 0h7.676a.848.848 0 0 1 .855.895l-.288 4.193a2.096 2.096 0 0 1-1.186 1.738l-2.267 1.1c-.6.29-1.304.29-1.904 0l-2.267-1.1a2.096 2.096 0 0 1-1.186-1.738L1.307.895A.845.845 0 0 1 2.162 0z"/>
        <path stroke="#E7B644" stroke-width=".5" d="M2.162.21L2.12.21a.634.634 0 0 0-.598.67l.288 4.193c.046.67.453 1.265 1.068 1.564l2.266 1.1c.54.261 1.174.261 1.714 0l2.266-1.1a1.887 1.887 0 0 0 1.068-1.564L10.48.88A.636.636 0 0 0 9.838.21H2.162z"/>
        <ellipse cx="6" cy="4.194" fill="#FADB6E" fill-rule="nonzero" stroke="#E7B644" stroke-width=".5" rx="2.143" ry="2.516"/>
        <ellipse cx="6" cy="4.194" fill="#E7B644" fill-rule="nonzero" rx="1.714" ry="2.097"/>
        <path fill="#FADB6E" fill-rule="nonzero" d="M6 4.823l-.756.388.145-.823-.612-.583.845-.12.378-.75.378.75.845.12-.612.583.145.823z"/>
        <rect width="10.286" height="1" x=".857" fill="#E7B644" fill-rule="nonzero" rx=".419"/>
    </g>
</svg>
