<?xml version="1.0" encoding="UTF-8" standalone="no"?>
<svg width="113px" height="28px" viewBox="0 0 113 28" version="1.1" xmlns="http://www.w3.org/2000/svg" xmlns:xlink="http://www.w3.org/1999/xlink">
    <!-- Generator: sketchtool 45.2 (43514) - http://www.bohemiancoding.com/sketch -->
    <title>CAF81EF5-10B0-43B2-A899-2BA5CDD09505</title>
    <desc>Created with sketchtool.</desc>
    <defs></defs>
    <g id="ðŸ”-Symbols" stroke="none" stroke-width="1" fill="none" fill-rule="evenodd">
        <g id="Header/ä¸€æœŸ/nav" transform="translate(-131.000000, -33.000000)" fill="#FFFFFF">
            <g id="Group-5" transform="translate(131.000000, 33.000000)">
                <g id="Group-4">
                    <rect id="Rectangle" x="0" y="3.02702703" width="35.5393062" height="2.27027027" rx="0.378378378"></rect>
                    <rect id="Rectangle-Copy" x="0" y="12.1081081" width="35.5393062" height="2.27027027" rx="0.378378378"></rect>
                    <path d="M3.4042028,15.8918919 L32.1351034,15.8918919 L32.1351034,15.8918919 C33.1799665,15.8918919 34.0269953,16.7389207 34.0269953,17.7837838 L34.0269953,26.1081081 L34.0269953,26.1081081 C34.0269953,27.1529711 33.1799665,28 32.1351034,28 L3.4042028,28 L3.4042028,28 C2.35933976,28 1.5123109,27.1529711 1.5123109,26.1081081 L1.5123109,17.7837838 L1.5123109,17.7837838 C1.5123109,16.7389207 2.35933976,15.8918919 3.4042028,15.8918919 L3.4042028,15.8918919 Z M9.4522438,18.9189189 C9.24327119,18.9189189 9.07386542,19.0883247 9.07386542,19.2972973 L9.07386542,20.8108108 C9.07386542,21.0197834 9.24327119,21.1891892 9.4522438,21.1891892 L26.0870624,21.1891892 C26.296035,21.1891892 26.4654408,21.0197834 26.4654408,20.8108108 L26.4654408,20.8108108 L26.4654408,19.2972973 C26.4654408,19.0883247 26.296035,18.9189189 26.0870624,18.9189189 L9.4522438,18.9189189 Z M9.4522438,22.7027027 C9.24327119,22.7027027 9.07386542,22.8721085 9.07386542,23.0810811 L9.07386542,24.5945946 C9.07386542,24.8035672 9.24327119,24.972973 9.4522438,24.972973 L26.0870624,24.972973 C26.296035,24.972973 26.4654408,24.8035672 26.4654408,24.5945946 L26.4654408,23.0810811 C26.4654408,22.8721085 26.296035,22.7027027 26.0870624,22.7027027 L9.4522438,22.7027027 Z" id="Combined-Shape"></path>
                    <path d="M13.9894772,0.756756757 L21.5498291,0.756756757 L21.5498291,0.756756757 C21.9677743,0.756756757 22.3065858,1.0955683 22.3065858,1.51351351 L22.3065858,3.02702703 L13.2327204,3.02702703 L13.2327204,1.51351351 L13.2327204,1.51351351 C13.2327204,1.0955683 13.571532,0.756756757 13.9894772,0.756756757 Z" id="Rectangle-2"></path>
                    <path d="M19.6603973,6.43243243 L27.2646781,6.43243243 L27.2646781,6.43243243 C27.4246724,6.43243243 27.567374,6.53306347 27.621092,6.68377025 L27.9095827,7.49313439 L27.9095827,7.49313439 C28.136285,8.1291508 28.7385177,8.55383634 29.4137294,8.55383634 L33.5807485,8.55383634 L33.5807485,10.972973 L22.2714868,10.972973 L22.2714868,10.972973 C20.9434142,10.972973 19.8100377,10.0127336 19.5918727,8.7027027 L19.2871592,6.87296774 L19.2871592,6.87296774 C19.2528308,6.666834 19.3921066,6.47190099 19.5982404,6.43757267 C19.6187826,6.43415168 19.6395722,6.43243243 19.6603973,6.43243243 Z" id="Path-2-Copy" transform="translate(26.431356, 8.702703) scale(-1, 1) translate(-26.431356, -8.702703) "></path>
                    <path d="M1.51266647,6.43243243 L9.11694726,6.43243243 L9.11694726,6.43243243 C9.27694153,6.43243243 9.41964311,6.53306347 9.4733612,6.68377025 L9.76185181,7.49313439 L9.76185181,7.49313439 C9.98855417,8.1291508 10.5907868,8.55383634 11.2659985,8.55383634 L15.4330177,8.55383634 L15.4330177,10.972973 L4.12375598,10.972973 L4.12375598,10.972973 C2.79568337,10.972973 1.66230683,10.0127336 1.44414183,8.7027027 L1.13942832,6.87296774 L1.13942832,6.87296774 C1.1051,6.666834 1.2443758,6.47190099 1.45050954,6.43757267 C1.47105176,6.43415168 1.49184134,6.43243243 1.51266647,6.43243243 Z" id="Path-2-Copy"></path>
                </g>
                <g id="Group-3" transform="translate(37.355372, 0.000000)">
                    <rect id="Rectangle-Copy" x="0.807858389" y="17.7837838" width="35.5393062" height="2.27027027" rx="0.378378378"></rect>
                    <path d="M15.9309674,15.8918919 L23.1144442,15.8918919 L23.1144442,24.2162162 L23.1144442,24.2162162 C23.1144442,26.3059423 21.4203865,28 19.3306604,28 L13.2844233,28 L13.2844233,21.9459459 L14.7958323,21.9459459 L14.7958323,21.9459459 C15.4227501,21.9459459 15.9309674,21.4377286 15.9309674,20.8108108 L15.9309674,15.8918919 Z" id="Rectangle-5"></path>
                    <path d="M2.32046995,23.4594595 L6.20019551,23.4594595 L6.20019551,23.4594595 C6.71861919,23.4594595 7.19251989,23.1664686 7.42421859,22.7027027 L7.69774445,22.155216 L7.69774445,22.155216 C7.76181734,22.0269683 7.89286765,21.9459459 8.03623014,21.9459459 L11.7718118,21.9459459 L11.7718118,21.9459459 C11.9807844,21.9459459 12.1501902,22.1153517 12.1501902,22.3243243 L12.1501902,24.972973 L12.1501902,24.972973 C12.1501902,26.6447538 10.794944,28 9.12316314,28 L2.32046995,28 L2.32046995,28 C2.11149734,28 1.94209157,27.8305942 1.94209157,27.6216216 L1.94209157,23.8378378 L1.94209157,23.8378378 C1.94209157,23.6288652 2.11149734,23.4594595 2.32046995,23.4594595 Z" id="Rectangle-6"></path>
                    <path d="M24.6270558,23.4594595 L28.5067813,23.4594595 L28.5067813,23.4594595 C29.025205,23.4594595 29.4991057,23.1664686 29.7308044,22.7027027 L30.0043303,22.155216 L30.0043303,22.155216 C30.0684032,22.0269683 30.1994535,21.9459459 30.342816,21.9459459 L34.0783976,21.9459459 L34.0783976,21.9459459 C34.2873702,21.9459459 34.456776,22.1153517 34.456776,22.3243243 L34.456776,24.972973 L34.456776,24.972973 C34.456776,26.6447538 33.1015298,28 31.429749,28 L24.6270558,28 L24.6270558,28 C24.4180832,28 24.2486774,27.8305942 24.2486774,27.6216216 L24.2486774,23.8378378 L24.2486774,23.8378378 C24.2486774,23.6288652 24.4180832,23.4594595 24.6270558,23.4594595 Z" id="Rectangle-6" transform="translate(29.352727, 24.972973) scale(-1, 1) translate(-29.352727, -24.972973) "></path>
                    <path d="M14.4201598,2.27027027 L22.7348632,2.27027027 C23.7797263,2.27027027 24.6267551,3.11729912 24.6267551,4.16216216 L24.6267551,13.2432432 C24.6267551,14.2881063 23.7797263,15.1351351 22.7348632,15.1351351 L14.4201598,15.1351351 L14.4201598,15.1351351 C13.3752967,15.1351351 12.5282679,14.2881063 12.5282679,13.2432432 L12.5282679,4.16216216 L12.5282679,4.16216216 C12.5282679,3.11729912 13.3752967,2.27027027 14.4201598,2.27027027 L14.4201598,2.27027027 Z M16.3090452,5.67567568 L16.3090452,7.18918919 L20.8459779,7.18918919 L20.8459779,5.67567568 L16.3090452,5.67567568 Z M16.3090452,10.2162162 L16.3090452,11.7297297 L20.8459779,11.7297297 L20.8459779,10.2162162 L16.3090452,10.2162162 Z" id="Combined-Shape"></path>
                    <path d="M16.3096465,0 L20.8453766,0 L20.8453766,-1.11022302e-16 C21.2633218,-1.87797593e-16 21.6021333,0.338811541 21.6021333,0.756756757 L21.6021333,2.64864865 L15.5528897,2.64864865 L15.5528897,0.756756757 L15.5528897,0.756756757 C15.5528897,0.338811541 15.8917012,-3.42470118e-17 16.3096465,-1.11022302e-16 Z" id="Rectangle-9"></path>
                    <rect id="Rectangle-11-Copy" x="3.8324802" y="13.6216216" width="7.56155452" height="2.27027027" rx="0.378378378"></rect>
                    <path d="M10.1156576,12.1081081 L11.0156563,12.1081081 L11.0156563,12.1081081 C11.2246289,12.1081081 11.3940347,12.2775139 11.3940347,12.4864865 L11.3940347,15.5135135 L11.3940347,15.5135135 C11.3940347,15.7224861 11.2246289,15.8918919 11.0156563,15.8918919 L7.99133518,15.8918919 L9.77717195,12.3173781 L9.77717195,12.3173781 C9.84124484,12.1891304 9.97229514,12.1081081 10.1156576,12.1081081 Z" id="Rectangle-12"></path>
                    <path d="M5.04568315,2.27027027 L9.38487866,2.27027027 L9.38487866,2.27027027 C9.80282388,2.27027027 10.1416354,2.60908181 10.1416354,3.02702703 C10.1416354,3.14975496 10.1117864,3.27064152 10.0546619,3.37926442 L6.857102,9.45945946 L2.06085899,9.45945946 L2.06085899,9.45945946 C1.64291378,9.45945946 1.30410224,9.12064792 1.30410224,8.7027027 C1.30410224,8.57997477 1.33395122,8.45908821 1.39107574,8.35046531 L4.37589989,2.67478963 L4.37589989,2.67478963 C4.50671979,2.42603418 4.764626,2.27027027 5.04568315,2.27027027 Z" id="Rectangle-11"></path>
                    <path d="M4.58863565,7.94594595 L9.06167376,7.94594595 L9.06167376,7.94594595 C9.47961898,7.94594595 9.81843052,8.28475749 9.81843052,8.7027027 C9.81843052,8.81519324 9.79335202,8.92626888 9.74501989,9.02784706 L6.47902428,15.8918919 L2.00598617,15.8918919 L2.00598617,15.8918919 C1.58804095,15.8918919 1.24922941,15.5530804 1.24922941,15.1351351 C1.24922941,15.0226446 1.27430791,14.911569 1.32264004,14.8099908 L4.58863565,7.94594595 Z" id="Rectangle-13"></path>
                    <rect id="Rectangle-11-Copy" x="28.7856101" y="13.6216216" width="7.56155452" height="2.27027027" rx="0.378378378"></rect>
                    <path d="M29.9988131,2.27027027 L34.3380086,2.27027027 L34.3380086,2.27027027 C34.7559538,2.27027027 35.0947653,2.60908181 35.0947653,3.02702703 C35.0947653,3.14975496 35.0649164,3.27064152 35.0077918,3.37926442 L31.8102319,9.45945946 L27.0139889,9.45945946 L27.0139889,9.45945946 C26.5960437,9.45945946 26.2572322,9.12064792 26.2572322,8.7027027 C26.2572322,8.57997477 26.2870811,8.45908821 26.3442057,8.35046531 L29.3290298,2.67478963 L29.3290298,2.67478963 C29.4598497,2.42603418 29.7177559,2.27027027 29.9988131,2.27027027 Z" id="Rectangle-11"></path>
                    <path d="M29.5417656,7.94594595 L34.0148037,7.94594595 L34.0148037,7.94594595 C34.4327489,7.94594595 34.7715604,8.28475749 34.7715604,8.7027027 C34.7715604,8.81519324 34.7464819,8.92626888 34.6981498,9.02784706 L31.4321542,15.8918919 L26.9591161,15.8918919 L26.9591161,15.8918919 C26.5411709,15.8918919 26.2023593,15.5530804 26.2023593,15.1351351 C26.2023593,15.0226446 26.2274378,14.911569 26.27577,14.8099908 L29.5417656,7.94594595 Z" id="Rectangle-13"></path>
                    <path d="M35.0687875,12.1081081 L35.9687863,12.1081081 L35.9687863,12.1081081 C36.1777589,12.1081081 36.3471646,12.2775139 36.3471646,12.4864865 L36.3471646,15.5135135 L36.3471646,15.5135135 C36.3471646,15.7224861 36.1777589,15.8918919 35.9687863,15.8918919 L32.9444651,15.8918919 L34.7303019,12.3173781 L34.7303019,12.3173781 C34.7943748,12.1891304 34.9254251,12.1081081 35.0687875,12.1081081 Z" id="Rectangle-12"></path>
                </g>
                <g id="Group" transform="translate(76.578512, 0.000000)">
                    <rect id="Rectangle-14" x="0.882181361" y="0.756756757" width="35.5393062" height="2.27027027" rx="0.378378378"></rect>
                    <rect id="Rectangle-15" x="14.4929795" y="1.89189189" width="8.31770997" height="10.5945946"></rect>
                    <path d="M2.77407325,4.91891892 L9.19989133,4.91891892 L9.19989133,12.1081081 L1.26055974,12.1081081 L1.26055974,12.1081081 C1.05158713,12.1081081 0.882181361,11.9387023 0.882181361,11.7297297 L0.882181361,6.81081081 L0.882181361,6.81081081 C0.882181361,5.76594777 1.72921021,4.91891892 2.77407325,4.91891892 Z" id="Rectangle-16"></path>
                    <rect id="Rectangle-17" x="5.04103635" y="4.91891892" width="13.6107981" height="1.13513514"></rect>
                    <rect id="Rectangle-18" x="7.68758043" y="7.56756757" width="5.29308816" height="1.13513514"></rect>
                    <rect id="Rectangle-18-Copy" x="7.68758043" y="9.83783784" width="5.29308816" height="1.13513514"></rect>
                    <path d="M29.9956695,4.91891892 L36.4214876,4.91891892 L36.4214876,12.1081081 L28.482156,12.1081081 L28.482156,12.1081081 C28.2731834,12.1081081 28.1037776,11.9387023 28.1037776,11.7297297 L28.1037776,6.81081081 L28.1037776,6.81081081 C28.1037776,5.76594777 28.9508065,4.91891892 29.9956695,4.91891892 Z" id="Rectangle-16" transform="translate(32.262633, 8.513514) scale(-1, 1) translate(-32.262633, -8.513514) "></path>
                    <rect id="Rectangle-17" transform="translate(25.457234, 5.486486) scale(-1, 1) translate(-25.457234, -5.486486) " x="18.6518345" y="4.91891892" width="13.6107981" height="1.13513514"></rect>
                    <rect id="Rectangle-18" transform="translate(26.969544, 8.135135) scale(-1, 1) translate(-26.969544, -8.135135) " x="24.3230004" y="7.56756757" width="5.29308816" height="1.13513514"></rect>
                    <rect id="Rectangle-18-Copy" transform="translate(26.969544, 10.405405) scale(-1, 1) translate(-26.969544, -10.405405) " x="24.3230004" y="9.83783784" width="5.29308816" height="1.13513514"></rect>
                    <path d="M21.6770576,13.2432432 L26.9695445,13.2432432 L26.9695445,24.972973 L26.9695445,24.972973 C26.9695445,26.6447538 25.6142983,28 23.9425174,28 L19.7863683,28 L19.7863683,28 C19.5773957,28 19.4079899,27.8305942 19.4079899,27.6216216 L19.4079899,23.0810811 L20.1635441,23.0810811 L20.1635441,23.0810811 C20.5814893,23.0810811 20.9203008,22.7422695 20.9203008,22.3243243 L20.9203008,14 L20.9203008,14 C20.9203008,13.5820548 21.2591124,13.2432432 21.6770576,13.2432432 Z" id="Rectangle-23"></path>
                    <path d="M30.372244,13.2432432 L35.6647308,13.2432432 L35.6647308,13.2432432 C36.0826761,13.2432432 36.4214876,13.5820548 36.4214876,14 L36.4214876,24.972973 L36.4214876,24.972973 C36.4214876,26.6447538 35.0662414,28 33.3944606,28 L29.2383115,28 L29.2383115,28 C29.0293389,28 28.8599331,27.8305942 28.8599331,27.6216216 L28.8599331,23.0810811 L29.6154872,23.0810811 L29.6154872,23.0810811 C30.0334324,23.0810811 30.372244,22.7422695 30.372244,22.3243243 L30.372244,13.2432432 Z" id="Rectangle-23-Copy"></path>
                    <rect id="Rectangle-24" x="22.8106895" y="13.2432432" width="11.7204095" height="1.13513514"></rect>
                    <rect id="Rectangle-24-Copy-2" x="22.8106895" y="19.6756757" width="11.7204095" height="1.13513514"></rect>
                    <rect id="Rectangle-24-Copy" x="22.8106895" y="16.2702703" width="11.7204095" height="1.51351351"></rect>
                    <rect id="Rectangle-19" x="0.126025909" y="14" width="18.9038863" height="1.13513514" rx="0.189189189"></rect>
                    <rect id="Rectangle-19-Copy" x="0.882181361" y="24.5945946" width="17.3915754" height="1.51351351" rx="0.189189189"></rect>
                    <path d="M1.26025909,13.2432432 L7.56155452,13.2432432 L7.56155452,15.8918919 L7.56155452,15.8918919 C7.56155452,16.3098371 7.90036606,16.6486486 8.31831128,16.6486486 L10.8376268,16.6486486 L10.8376268,16.6486486 C11.2555721,16.6486486 11.5943836,16.3098371 11.5943836,15.8918919 L11.5943836,13.2432432 L17.895679,13.2432432 L17.895679,16.2702703 L17.895679,16.2702703 C17.895679,17.3151333 17.0486502,18.1621622 16.0037871,18.1621622 L3.15215098,18.1621622 L3.15215098,18.1621622 C2.10728794,18.1621622 1.26025909,17.3151333 1.26025909,16.2702703 L1.26025909,13.2432432 Z" id="Rectangle-20"></path>
                    <rect id="Rectangle-21" x="6.93142498" y="17.7837838" width="5.29308816" height="9.83783784"></rect>
                    <rect id="Rectangle-21" x="1.26025909" y="18.9189189" width="4.53693271" height="4.91891892" rx="0.756756757"></rect>
                    <rect id="Rectangle-21" x="13.3587463" y="18.9189189" width="4.53693271" height="4.91891892" rx="0.756756757"></rect>
                    <rect id="Rectangle-22" x="1.26025909" y="18.9189189" width="16.6354199" height="1.13513514" rx="0.567567568"></rect>
                    <rect id="Rectangle-22" x="1.26025909" y="22.7027027" width="16.6354199" height="1.13513514" rx="0.567567568"></rect>
                </g>
            </g>
        </g>
    </g>
</svg>