<svg xmlns="http://www.w3.org/2000/svg" width="50" height="50" viewBox="0 0 50 50">
    <g fill="none" fill-rule="nonzero">
        <circle cx="25" cy="25" r="25" fill="#0193E9"/>
        <path fill="#FDFEFE" d="M35.45 30.922a7.733 7.733 0 0 1-1.722 3.29c-.256.277.078.338.222.394a4.622 4.622 0 0 1 1.583 1.055c.695.689.717 1.233 0 1.911a4.578 4.578 0 0 1-2.777 1.056 12.544 12.544 0 0 1-6.028-.79 2.511 2.511 0 0 0-2.667.318 3.822 3.822 0 0 1-2.044.672 15.089 15.089 0 0 1-4.934-.267 7.967 7.967 0 0 1-1.383-.6c-1.111-.5-.839-2.539.089-2.939a4.167 4.167 0 0 1 1.428-.4 7.406 7.406 0 0 1-2.628-4.105 4.656 4.656 0 0 1-1.406 1.75c-.616.489-1.016.394-1.189-.361a6.956 6.956 0 0 1 .612-4.75 9.278 9.278 0 0 1 2.56-3.24.722.722 0 0 0 .3-.738 1.922 1.922 0 0 1 .09-1.034 14.4 14.4 0 0 0 .955-3.527c.295-1.84 1.311-3.334 2.483-4.795 2.778-3.45 9.145-3.51 12.65-.933a8.333 8.333 0 0 1 2.956 4.578c.202.742.344 1.5.422 2.266.084.667.556 1.173.728 1.828.183.522.183 1.09 0 1.611a.811.811 0 0 0 .15.85c1.139 1.717 2.1 3.522 2.294 5.622a4.644 4.644 0 0 1-.416 2.578c-.372.74-.928.767-1.406.095-.3-.411-.566-.845-.922-1.395z"/>
    </g>
</svg>
