<svg xmlns="http://www.w3.org/2000/svg" width="50" height="50" viewBox="0 0 50 50">
    <g fill="none" fill-rule="evenodd">
        <circle cx="25" cy="25" r="25" fill="#2DC100"/>
        <g fill="#FFF">
            <path d="M30.825 21.14c-2.678.14-5.007.952-6.898 2.787-1.91 1.853-2.783 4.124-2.544 6.94-1.047-.13-2-.273-2.96-.354-.331-.028-.724.012-1.005.17-.93.526-1.824 1.119-2.882 1.78.195-.878.32-1.647.543-2.386.163-.544.087-.847-.413-1.2-3.216-2.27-4.57-5.668-3.557-9.165.939-3.236 3.243-5.198 6.374-6.221 4.274-1.396 9.077.028 11.676 3.421.939 1.226 1.514 2.601 1.666 4.228zm-12.327-1.09c.025-.64-.53-1.216-1.188-1.235a1.2 1.2 0 0 0-1.248 1.16 1.185 1.185 0 0 0 1.174 1.23c.673.017 1.237-.499 1.262-1.154zm6.432-1.235c-.661.012-1.22.575-1.208 1.217.012.666.56 1.187 1.24 1.178a1.184 1.184 0 0 0 1.191-1.214 1.191 1.191 0 0 0-1.223-1.181z"/>
            <path d="M36.843 37.838c-.848-.377-1.626-.944-2.455-1.03-.825-.087-1.692.39-2.555.478-2.63.269-4.986-.464-6.928-2.26-3.695-3.418-3.167-8.657 1.108-11.457 3.798-2.489 9.37-1.66 12.048 1.794 2.337 3.013 2.062 7.013-.791 9.545-.826.732-1.123 1.335-.593 2.301.098.178.109.404.166.63zm-9.654-9.347a1 1 0 0 0 1.004-.955 1.005 1.005 0 0 0-.997-1.04 1.015 1.015 0 0 0-1.01 1.033c.019.532.466.961 1.003.962zm6.223-1.993a.998.998 0 0 0-.99.954.982.982 0 0 0 .977 1.032.973.973 0 0 0 .99-.947.991.991 0 0 0-.977-1.04z"/>
        </g>
    </g>
</svg>
